<svg xmlns="http://www.w3.org/2000/svg" viewBox="0 0 508.52 508.52" width="512" height="512"><path d="M507.948 46.021c-1.367-16.368-14.588-30.13-31.21-30.13H31.782C15.16 15.891 1.938 29.653.54 46.021H0v414.825c0 17.544 14.239 31.782 31.782 31.782h444.955c17.544 0 31.782-14.239 31.782-31.782V46.021h-.571zM158.912 460.846H31.782v-95.347h127.13v95.347zm0-124.492H31.782v-97.985h127.13v97.985zm0-129.768H31.782v-95.347h127.13v95.347zm158.913 254.26h-127.13v-95.347h127.13v95.347zm0-124.492h-127.13v-97.985h127.13v97.985zm0-129.768h-127.13v-95.347h127.13v95.347zm158.912 254.26h-127.13v-95.347h127.13v95.347zm0-124.492h-127.13v-97.985h127.13v97.985zm0-129.768h-127.13v-95.347h127.13v95.347z" fill="#006DF0"/></svg>